<?xml version="1.0" encoding="UTF-8"?>
<!DOCTYPE svg PUBLIC "-//W3C//DTD SVG 1.1//EN" "http://www.w3.org/Graphics/SVG/1.1/DTD/svg11.dtd">
<!-- Creator: CorelDRAW 2020 (64 Bit) -->
<svg xmlns="http://www.w3.org/2000/svg" xml:space="preserve" width="737px" height="1080px" version="1.1" style="shape-rendering:geometricPrecision; text-rendering:geometricPrecision; image-rendering:optimizeQuality; fill-rule:evenodd; clip-rule:evenodd"
viewBox="0 0 737 1080.543"
 xmlns:xlink="http://www.w3.org/1999/xlink"
 xmlns:xodm="http://www.corel.com/coreldraw/odm/2003">
 <defs>
  <style type="text/css">
   <![CDATA[
    .fil0 {fill:#EA1D1D}
   ]]>
  </style>
 </defs>
 <g id="Camada_x0020_1">
  <metadata id="CorelCorpID_0Corel-Layer"/>
  <path class="fil0" d="M-0.684 1078.2l736.998 2.343 0 -13.437c-4.223,-1.929 -9.676,-0.85 -12.71,-13.46 -3.693,-14.213 1.078,-13.246 5.706,-26.064 -15.663,-10.93 -6.293,-1.149 -8.516,-10.463 -2.66,-12.121 -1.057,-4.062 -6.737,-14.579 12.838,-31.892 10.408,-7.402 3.027,-40.152 -3.828,-17.375 6.009,-11.471 -25.189,-25.843l3.546 -14.522 -60.586 -20.265 -11.09 0.241c0.644,-16.051 -0.65,-13.847 -3.376,-27.548 -4.877,-25.762 2.774,-5.96 -12.883,-21.217 -12.434,-12.116 -1.366,-48.548 -6.814,-61.003 -11.513,-11.219 -21.274,-4.918 -17.509,-27.675 7.996,-49.388 20.238,-31.395 3.423,-60.558 -8.512,-14.791 -2.644,-5.825 -4.17,-20.957 -3.664,-35.843 -4.807,-43.454 20.383,-71.108 -9.033,-21.147 -5.314,-9.293 -2.009,-32.497l-2.238 -34.884c-7.435,-8.762 -11.545,-4.535 -20.04,-13.031 -3.892,-4.008 -10.773,-13.096 -13.904,-17.013 1.673,-9.633 3.888,-10.94 5.047,-16.307 4.106,-19.175 -1.675,-5.316 -6.704,-21.261 -1.308,-4.091 -0.248,-4.357 -1.51,-8.836 -5.095,-17.527 -20.875,-10.376 -29.607,-31.881l-2.872 -8.213c-0.206,-0.418 -0.62,-1.254 -0.781,-2.06 -17.425,-39.071 -26.893,-9.528 -33.804,-31.207 -2.939,-9.793 2.541,-4.021 -2.099,-16.774 -4.32,-11.139 -2.256,-2.631 -9.438,-11.361 -15.125,-17.552 11.763,-3.7 -7.098,-20.128 -8.429,-6.914 -11.881,-12.443 -25.247,-16.803 2.807,-12.643 11.159,-17.934 5.178,-28.093 -6.188,-10.578 7.223,-2.335 7.365,-22.773 0.308,-23.958 -3.037,-4.692 -1.974,-24.232 0.81,-19.571 7.618,-7.738 -5.571,-24.272 11.025,-21.096 1.072,-8.918 7.709,-23.462 5.688,-13.083 10.314,-6.627 15.128,-20.996 -6.053,-7.414 -8.522,-6.138 -13.608,-13.043 -6.582,-9.445 -2.199,-11.672 -4.536,-22.18 -3.668,-16.569 -2.903,-1.529 -11.528,-17.514 -2.897,-5.855 -4.821,-15.527 -7.005,-20.903 -6.896,-15.384 -2.174,5.245 -18.278,-38.387 -11.879,-31.717 4.292,-20.726 2.431,-43.764 -16.631,-11.441 -7.059,3.085 -15.797,-14.094 -6.733,-12.973 -8.613,-6.125 -16.778,-15.964l-393.935 0 0 1078.2z"/>
 </g>
</svg>
