<svg width="531" height="380" viewBox="0 0 531 380" fill="none" xmlns="http://www.w3.org/2000/svg">
<g filter="url(#filter0_d)">
<path d="M174.218 272.253C174.218 275.134 173.559 277.844 172.24 280.383C170.922 282.922 169.14 285.119 166.894 286.975C164.647 288.83 162.011 290.295 158.983 291.369C155.956 292.443 152.733 292.98 149.315 292.98C147.021 292.98 144.701 292.663 142.357 292.028C140.014 291.394 137.768 290.344 135.619 288.879C133.471 287.414 131.444 285.485 129.54 283.093C127.636 280.7 125.976 277.771 124.56 274.304C123.192 270.837 122.094 266.784 121.264 262.146C120.482 257.458 120.092 252.087 120.092 246.032C120.092 240.319 120.482 235.266 121.264 230.871C122.094 226.477 123.192 222.644 124.56 219.372C125.976 216.101 127.611 213.366 129.467 211.169C131.322 208.923 133.3 207.116 135.399 205.749C137.548 204.333 139.745 203.332 141.991 202.746C144.286 202.16 146.532 201.867 148.729 201.867C152.001 201.867 155.102 202.404 158.031 203.479C160.961 204.504 163.524 206.042 165.722 208.093C167.919 210.144 169.652 212.683 170.922 215.71C172.24 218.688 172.899 222.131 172.899 226.037C172.899 229.553 172.167 233.117 170.702 236.73C169.286 240.295 167.162 243.688 164.33 246.911C161.498 250.085 157.982 252.99 153.783 255.627C149.633 258.215 144.848 260.266 139.428 261.779C139.721 264.807 140.136 267.565 140.673 270.056C141.259 272.546 141.967 274.67 142.797 276.428C143.676 278.186 144.677 279.553 145.8 280.529C146.972 281.506 148.314 281.994 149.828 281.994C150.805 281.945 151.732 281.774 152.611 281.481C153.393 281.237 154.174 280.847 154.955 280.31C155.785 279.772 156.469 278.991 157.006 277.966C155.736 277.38 154.76 276.623 154.076 275.695C153.393 274.768 152.88 273.889 152.538 273.059C152.147 272.082 151.928 271.057 151.879 269.982C151.879 267.639 152.343 265.734 153.271 264.27C154.198 262.805 155.297 261.657 156.566 260.827C157.836 259.997 159.13 259.436 160.448 259.143C161.767 258.801 162.816 258.63 163.598 258.63C164.428 258.63 165.429 258.801 166.601 259.143C167.821 259.484 168.993 260.144 170.116 261.12C171.239 262.097 172.191 263.488 172.973 265.295C173.803 267.053 174.218 269.372 174.218 272.253ZM156.127 226.184C156.127 224.426 155.956 222.766 155.614 221.203C155.321 219.592 154.857 218.2 154.223 217.028C153.637 215.856 152.88 214.929 151.952 214.245C151.073 213.513 150.048 213.146 148.876 213.146C146.874 213.146 145.238 214.074 143.969 215.93C142.699 217.736 141.674 220.153 140.893 223.181C140.111 226.208 139.574 229.699 139.281 233.654C138.988 237.609 138.842 241.735 138.842 246.032V251.379C141.332 250.061 143.627 248.498 145.727 246.691C147.875 244.885 149.706 242.907 151.22 240.759C152.782 238.562 153.979 236.242 154.809 233.801C155.688 231.359 156.127 228.82 156.127 226.184ZM202.302 185.241C202.302 186.804 202.009 188.293 201.424 189.709C200.838 191.076 200.032 192.272 199.007 193.298C197.981 194.323 196.76 195.153 195.344 195.788C193.977 196.374 192.512 196.667 190.95 196.667C189.387 196.667 187.898 196.374 186.482 195.788C185.115 195.153 183.919 194.323 182.893 193.298C181.868 192.272 181.038 191.076 180.403 189.709C179.817 188.293 179.524 186.804 179.524 185.241C179.524 183.679 179.817 182.214 180.403 180.847C181.038 179.431 181.868 178.21 182.893 177.185C183.919 176.159 185.115 175.354 186.482 174.768C187.898 174.133 189.387 173.815 190.95 173.815C192.512 173.815 193.977 174.133 195.344 174.768C196.76 175.354 197.981 176.159 199.007 177.185C200.032 178.21 200.838 179.431 201.424 180.847C202.009 182.214 202.302 183.679 202.302 185.241ZM202.302 207.434C201.912 211.291 201.57 215.466 201.277 219.958C201.033 224.401 200.813 228.967 200.618 233.654C200.471 238.342 200.349 243.054 200.252 247.79C200.154 252.526 200.081 257.043 200.032 261.34C199.983 265.637 199.934 269.665 199.885 273.425C199.885 277.136 199.885 280.334 199.885 283.02V291.296L183.259 291.882C183.357 288.513 183.406 285.241 183.406 282.067C183.406 278.894 183.406 275.72 183.406 272.546C183.406 267.028 183.357 261.657 183.259 256.433C183.162 251.159 182.991 245.886 182.747 240.612C182.551 235.339 182.283 229.992 181.941 224.572C181.599 219.152 181.184 213.537 180.696 207.727L202.302 207.434ZM230.826 208.166C230.436 214.855 230.118 221.301 229.874 227.502C229.63 233.654 229.435 239.147 229.288 243.981C229.093 249.597 228.947 254.87 228.849 259.802C228.654 265.563 228.556 271.276 228.556 276.94C228.605 282.604 228.458 287.976 228.117 293.054C227.775 298.181 227.116 302.917 226.139 307.263C225.211 311.657 223.649 315.441 221.451 318.615C219.254 321.789 216.325 324.279 212.662 326.086C209 327.893 204.313 328.796 198.6 328.796C194.401 328.796 191.007 328.186 188.419 326.965C185.831 325.793 183.829 324.328 182.413 322.57C180.997 320.812 180.07 318.933 179.63 316.931C179.142 314.929 178.898 313.146 178.898 311.584C178.898 309.924 179.142 308.337 179.63 306.823C180.118 305.358 180.851 304.064 181.827 302.941C182.755 301.867 183.927 301.013 185.343 300.378C186.71 299.743 188.273 299.426 190.031 299.426C191.837 299.426 193.449 299.768 194.865 300.451C196.232 301.135 197.404 302.014 198.38 303.088C199.308 304.211 200.016 305.456 200.504 306.823C200.993 308.19 201.237 309.558 201.237 310.925C201.188 311.706 201.017 312.512 200.724 313.342C200.48 314.025 200.065 314.782 199.479 315.612C198.844 316.491 197.99 317.346 196.915 318.176C197.501 318.42 198.087 318.566 198.673 318.615C199.21 318.713 199.674 318.762 200.065 318.762C201.285 318.762 202.604 318.371 204.02 317.59C205.436 316.857 206.73 315.686 207.902 314.074C209.074 312.512 210.05 310.51 210.831 308.068C211.661 305.627 212.125 302.697 212.223 299.279C212.321 295.471 212.394 290.759 212.443 285.144C212.492 279.528 212.516 273.474 212.516 266.979C212.516 261.364 212.467 255.651 212.369 249.841C212.321 243.981 212.223 238.391 212.076 233.068C211.93 227.746 211.735 222.912 211.491 218.566C211.246 214.172 210.929 210.607 210.538 207.873L230.826 208.166ZM230.826 182.824C230.826 184.387 230.509 185.876 229.874 187.292C229.288 188.659 228.483 189.855 227.457 190.881C226.432 191.906 225.211 192.736 223.795 193.371C222.428 193.957 220.963 194.25 219.401 194.25C217.838 194.25 216.349 193.957 214.933 193.371C213.566 192.736 212.369 191.906 211.344 190.881C210.319 189.855 209.513 188.659 208.927 187.292C208.341 185.876 208.048 184.387 208.048 182.824C208.048 181.262 208.341 179.797 208.927 178.43C209.513 177.014 210.319 175.793 211.344 174.768C212.369 173.742 213.566 172.937 214.933 172.351C216.349 171.765 217.838 171.472 219.401 171.472C220.963 171.472 222.428 171.765 223.795 172.351C225.211 172.937 226.432 173.742 227.457 174.768C228.483 175.793 229.288 177.014 229.874 178.43C230.509 179.797 230.826 181.262 230.826 182.824ZM266.089 292.175C261.255 292.175 257.08 291.125 253.564 289.025C250.098 286.926 247.217 283.996 244.922 280.236C242.676 276.477 241.016 272.009 239.941 266.833C238.867 261.657 238.33 256.018 238.33 249.914C238.33 242.834 238.965 236.34 240.234 230.432C241.504 224.523 243.359 219.445 245.801 215.197C248.291 210.949 251.343 207.653 254.956 205.31C258.618 202.917 262.817 201.721 267.554 201.721C272.339 201.721 276.465 202.722 279.932 204.724C283.398 206.726 286.255 209.533 288.501 213.146C290.796 216.76 292.48 221.081 293.555 226.11C294.629 231.14 295.166 236.682 295.166 242.736C295.166 245.861 294.971 249.255 294.58 252.917C294.238 256.579 293.628 260.241 292.749 263.903C291.919 267.565 290.796 271.105 289.38 274.523C287.964 277.893 286.182 280.896 284.033 283.532C281.885 286.169 279.321 288.269 276.343 289.831C273.413 291.394 269.995 292.175 266.089 292.175ZM277.515 237.316C277.515 233.605 277.344 230.285 277.002 227.355C276.66 224.377 276.099 221.862 275.317 219.812C274.585 217.761 273.633 216.198 272.461 215.124C271.338 214.001 269.971 213.439 268.359 213.439C266.602 213.439 264.966 214.367 263.452 216.223C261.938 218.078 260.596 220.764 259.424 224.279C258.301 227.795 257.397 232.092 256.714 237.17C256.079 242.199 255.762 247.888 255.762 254.235C255.762 258.337 255.957 262.023 256.348 265.295C256.738 268.518 257.324 271.276 258.105 273.571C258.887 275.817 259.839 277.551 260.962 278.771C262.134 279.943 263.501 280.529 265.063 280.529C266.626 280.529 268.018 279.895 269.238 278.625C270.459 277.307 271.509 275.549 272.388 273.352C273.315 271.154 274.097 268.615 274.731 265.734C275.415 262.805 275.952 259.753 276.343 256.579C276.733 253.356 277.026 250.085 277.222 246.765C277.417 243.444 277.515 240.295 277.515 237.316ZM337.753 291.003C337.46 289.489 337.191 287.951 336.947 286.389C336.703 284.826 336.507 283.215 336.361 281.555C334.115 284.875 331.429 287.414 328.304 289.172C325.179 290.979 321.761 291.882 318.05 291.882C316.146 291.882 314.193 291.564 312.191 290.93C310.189 290.344 308.358 289.294 306.698 287.78C305.087 286.267 303.744 284.216 302.67 281.628C301.644 278.991 301.132 275.671 301.132 271.667C301.132 268.347 301.62 265.466 302.596 263.024C303.573 260.534 304.842 258.361 306.405 256.506C307.967 254.65 309.725 253.039 311.678 251.672C313.632 250.305 315.56 249.084 317.465 248.01C319.418 246.936 321.273 245.935 323.031 245.007C324.789 244.079 326.229 243.151 327.352 242.224C329.501 240.515 331.356 238.708 332.919 236.804C334.53 234.851 335.824 232.824 336.8 230.725C336.605 227.355 336.239 224.597 335.702 222.448C335.214 220.251 334.554 218.518 333.724 217.248C332.894 215.93 331.869 215.026 330.648 214.538C329.476 214.001 328.133 213.732 326.62 213.732C324.374 213.732 322.469 214.221 320.907 215.197C319.393 216.174 318.148 217.346 317.172 218.713C318.392 219.494 319.32 220.324 319.955 221.203C320.638 222.082 321.151 222.937 321.493 223.767C321.883 224.694 322.103 225.646 322.152 226.623C322.152 229.943 321.2 232.482 319.296 234.24C317.44 235.998 315.048 236.877 312.118 236.877C310.604 236.877 309.213 236.535 307.943 235.852C306.674 235.119 305.55 234.118 304.574 232.849C303.646 231.579 302.914 230.065 302.377 228.308C301.84 226.55 301.571 224.646 301.571 222.595C301.571 220.544 302.035 218.371 302.963 216.076C303.89 213.781 305.38 211.657 307.43 209.704C309.481 207.702 312.118 206.066 315.34 204.797C318.563 203.479 322.469 202.819 327.059 202.819C331.649 202.819 335.58 203.723 338.851 205.529C342.123 207.287 344.808 209.655 346.908 212.634C349.007 215.563 350.521 218.957 351.449 222.814C352.425 226.672 352.914 230.651 352.914 234.753C352.914 237.829 352.889 241.174 352.84 244.787C352.792 248.4 352.767 252.111 352.767 255.92C352.767 259.094 352.792 262.268 352.84 265.441C352.889 268.615 352.987 271.691 353.133 274.67C353.28 277.6 353.475 280.383 353.719 283.02C353.964 285.607 354.281 287.927 354.672 289.978L337.753 291.003ZM336.654 248.083C334.945 250.134 333.114 251.892 331.161 253.356C329.696 254.382 328.109 255.529 326.4 256.799C324.74 258.068 323.177 259.411 321.713 260.827C320.297 262.243 319.1 263.732 318.124 265.295C317.196 266.809 316.732 268.371 316.732 269.982C316.732 272.18 317.269 274.06 318.343 275.622C319.418 277.185 320.931 277.966 322.884 277.966C324.691 277.966 326.302 277.478 327.718 276.501C329.134 275.524 330.38 274.328 331.454 272.912C332.577 271.447 333.505 269.885 334.237 268.225C335.018 266.564 335.629 265.051 336.068 263.684L336.654 248.083ZM419.963 178.063C418.84 192.321 417.986 206.481 417.4 220.544C416.814 234.558 416.521 248.693 416.521 262.951C416.521 272.473 416.667 282.019 416.96 291.589L400.261 291.882L400.774 277.38C398.821 281.042 396.819 283.85 394.768 285.803C392.717 287.756 390.837 289.221 389.128 290.197C387.126 291.32 385.149 291.979 383.196 292.175C380.705 292.175 378.191 291.467 375.652 290.051C373.113 288.635 370.818 286.193 368.767 282.727C366.716 279.26 365.032 274.646 363.713 268.884C362.395 263.073 361.736 255.798 361.736 247.058C361.736 241.296 362.077 236.218 362.761 231.823C363.445 227.38 364.372 223.522 365.544 220.251C366.716 216.979 368.083 214.245 369.646 212.048C371.257 209.802 372.966 207.995 374.773 206.628C376.628 205.261 378.557 204.284 380.559 203.698C382.561 203.112 384.538 202.819 386.492 202.819C387.81 202.917 389.226 203.234 390.74 203.771C392.009 204.26 393.45 204.992 395.061 205.969C396.721 206.896 398.406 208.288 400.115 210.144C399.822 199.304 399.382 188.513 398.796 177.771L419.963 178.063ZM401.067 252.917C401.067 243.493 400.92 234.045 400.627 224.572C400.09 223.791 399.504 222.985 398.869 222.155C398.284 221.325 397.624 220.568 396.892 219.885C396.16 219.152 395.378 218.566 394.548 218.127C393.718 217.688 392.839 217.468 391.911 217.468C390.544 217.468 389.153 217.956 387.737 218.933C386.369 219.86 385.124 221.496 384.001 223.84C382.878 226.135 381.951 229.211 381.218 233.068C380.535 236.926 380.193 241.784 380.193 247.644C380.193 253.063 380.437 257.556 380.925 261.12C381.413 264.685 382.073 267.541 382.903 269.689C383.733 271.789 384.685 273.278 385.759 274.157C386.833 274.987 387.981 275.402 389.201 275.402C391.057 275.402 392.644 274.792 393.962 273.571C395.329 272.302 396.452 270.788 397.331 269.03C398.259 267.272 399.016 265.466 399.602 263.61C400.188 261.706 400.676 260.095 401.067 258.776V252.917ZM462.477 291.003C462.184 289.489 461.915 287.951 461.671 286.389C461.427 284.826 461.231 283.215 461.085 281.555C458.839 284.875 456.153 287.414 453.028 289.172C449.903 290.979 446.485 291.882 442.774 291.882C440.87 291.882 438.917 291.564 436.915 290.93C434.913 290.344 433.082 289.294 431.422 287.78C429.811 286.267 428.468 284.216 427.394 281.628C426.368 278.991 425.855 275.671 425.855 271.667C425.855 268.347 426.344 265.466 427.32 263.024C428.297 260.534 429.566 258.361 431.129 256.506C432.691 254.65 434.449 253.039 436.402 251.672C438.355 250.305 440.284 249.084 442.188 248.01C444.142 246.936 445.997 245.935 447.755 245.007C449.513 244.079 450.953 243.151 452.076 242.224C454.225 240.515 456.08 238.708 457.643 236.804C459.254 234.851 460.548 232.824 461.524 230.725C461.329 227.355 460.963 224.597 460.426 222.448C459.938 220.251 459.278 218.518 458.448 217.248C457.618 215.93 456.593 215.026 455.372 214.538C454.2 214.001 452.857 213.732 451.344 213.732C449.098 213.732 447.193 214.221 445.631 215.197C444.117 216.174 442.872 217.346 441.896 218.713C443.116 219.494 444.044 220.324 444.679 221.203C445.362 222.082 445.875 222.937 446.217 223.767C446.607 224.694 446.827 225.646 446.876 226.623C446.876 229.943 445.924 232.482 444.02 234.24C442.164 235.998 439.771 236.877 436.842 236.877C435.328 236.877 433.937 236.535 432.667 235.852C431.397 235.119 430.274 234.118 429.298 232.849C428.37 231.579 427.638 230.065 427.101 228.308C426.563 226.55 426.295 224.646 426.295 222.595C426.295 220.544 426.759 218.371 427.687 216.076C428.614 213.781 430.104 211.657 432.154 209.704C434.205 207.702 436.842 206.066 440.064 204.797C443.287 203.479 447.193 202.819 451.783 202.819C456.373 202.819 460.304 203.723 463.575 205.529C466.847 207.287 469.532 209.655 471.632 212.634C473.731 215.563 475.245 218.957 476.173 222.814C477.149 226.672 477.638 230.651 477.638 234.753C477.638 237.829 477.613 241.174 477.564 244.787C477.516 248.4 477.491 252.111 477.491 255.92C477.491 259.094 477.516 262.268 477.564 265.441C477.613 268.615 477.711 271.691 477.857 274.67C478.004 277.6 478.199 280.383 478.443 283.02C478.688 285.607 479.005 287.927 479.396 289.978L462.477 291.003ZM461.378 248.083C459.669 250.134 457.838 251.892 455.885 253.356C454.42 254.382 452.833 255.529 451.124 256.799C449.464 258.068 447.901 259.411 446.437 260.827C445.021 262.243 443.824 263.732 442.848 265.295C441.92 266.809 441.456 268.371 441.456 269.982C441.456 272.18 441.993 274.06 443.067 275.622C444.142 277.185 445.655 277.966 447.608 277.966C449.415 277.966 451.026 277.478 452.442 276.501C453.858 275.524 455.104 274.328 456.178 272.912C457.301 271.447 458.229 269.885 458.961 268.225C459.742 266.564 460.353 265.051 460.792 263.684L461.378 248.083Z" fill="#FED40E"/>
</g>
<g filter="url(#filter1_d)">
<path d="M135.253 137.976C125.813 137.08 117.553 136.511 110.473 136.267C103.393 135.941 97.3298 135.778 92.2842 135.778C90.0055 135.778 88.0524 135.778 86.4248 135.778C84.8786 135.778 83.4137 135.86 82.0303 136.022V183.996C87.6455 183.833 92.6911 183.63 97.167 183.386C101.643 183.06 105.427 182.694 108.52 182.287C112.182 181.88 115.437 181.433 118.285 180.944C118.204 181.514 118.163 182.165 118.163 182.897C118.082 183.549 118.041 184.322 118.041 185.217C118.041 186.112 118.041 187.129 118.041 188.269C118.041 190.873 118.122 194.006 118.285 197.668C118.448 201.249 118.773 205.114 119.262 209.265C110.635 208.125 103.189 207.434 96.9229 207.189C90.6566 206.864 85.7738 206.701 82.2744 206.701C82.4372 222.245 82.722 235.428 83.1289 246.252C83.6172 256.994 84.1055 265.702 84.5938 272.375C85.082 280.269 85.6517 286.657 86.3027 291.54C84.7565 291.296 82.9661 291.092 80.9316 290.93C78.8971 290.848 76.7406 290.808 74.4619 290.808C71.6136 290.808 68.7246 290.848 65.7949 290.93C62.8652 291.092 60.2204 291.255 57.8604 291.418C55.0934 291.662 52.4079 291.866 49.8037 292.028C50.3734 286.576 50.8617 281.083 51.2686 275.549C51.7568 270.015 52.1637 264.562 52.4893 259.191C52.8148 253.82 53.0996 248.653 53.3438 243.688C53.5879 238.724 53.7913 234.045 53.9541 229.65C54.2796 219.396 54.4831 209.59 54.5645 200.231C54.4831 190.466 54.2796 180.456 53.9541 170.202C53.7913 165.808 53.5879 161.21 53.3438 156.408C53.0996 151.525 52.8148 146.561 52.4893 141.516C52.1637 136.47 51.7568 131.424 51.2686 126.379C50.8617 121.252 50.3734 116.288 49.8037 111.486C59.9762 111.893 69.0501 112.219 77.0254 112.463C85.082 112.626 92.2435 112.707 98.5098 112.707C104.695 112.707 110.025 112.666 114.501 112.585C118.977 112.422 122.639 112.259 125.487 112.097C128.824 111.934 131.591 111.73 133.788 111.486C133.788 111.405 133.788 112.137 133.788 113.684C133.788 115.23 133.829 117.264 133.91 119.787C133.992 122.31 134.114 125.158 134.276 128.332C134.521 131.506 134.846 134.72 135.253 137.976Z" fill="#FED40E"/>
</g>
<g filter="url(#filter2_d)">
<path d="M71.3698 80.4492C70.3151 80.4232 69.332 80.4036 68.4206 80.3906C67.5221 80.3906 66.6693 80.3906 65.862 80.3906C64.2865 80.3906 62.9648 80.4036 61.8971 80.4297C60.8424 80.4688 59.9831 80.5013 59.319 80.5273C58.5378 80.5664 57.9193 80.6055 57.4635 80.6445C57.5547 79.7721 57.6328 78.8932 57.6979 78.0078C57.776 77.1224 57.8411 76.25 57.8932 75.3906C57.9453 74.5312 57.9909 73.7044 58.0299 72.9102C58.069 72.1159 58.1016 71.3672 58.1276 70.6641C58.1797 69.0234 58.2122 67.4544 58.2253 65.957C58.2122 64.3945 58.1797 62.793 58.1276 61.1523C58.1016 60.4492 58.069 59.7135 58.0299 58.9453C57.9909 58.1641 57.9453 57.3698 57.8932 56.5625C57.8411 55.7552 57.776 54.9479 57.6979 54.1406C57.6328 53.3203 57.5547 52.526 57.4635 51.7578C59.0911 51.8229 60.543 51.875 61.819 51.9141C63.1081 51.9401 64.2539 51.9531 65.2565 51.9531C66.2461 51.9531 67.099 51.9466 67.8151 51.9336C68.5312 51.9076 69.1172 51.8815 69.5729 51.8555C70.1068 51.8294 70.5495 51.7969 70.901 51.7578C70.901 51.7448 70.901 51.862 70.901 52.1094C70.901 52.3568 70.9075 52.6823 70.9206 53.0859C70.9336 53.4896 70.9531 53.9453 70.9792 54.4531C71.0182 54.9609 71.0703 55.4753 71.1354 55.9961C69.625 55.8529 68.3034 55.7617 67.1706 55.7227C66.0378 55.6706 65.0677 55.6445 64.2604 55.6445C63.9219 55.6445 63.6224 55.6445 63.362 55.6445C63.1146 55.6445 62.8802 55.6576 62.6589 55.6836C62.6328 57.1289 62.6133 58.4896 62.6003 59.7656C62.5872 61.0286 62.5807 62.2266 62.5807 63.3594C63.4922 63.3333 64.306 63.3008 65.0221 63.2617C65.7383 63.2096 66.3503 63.151 66.8581 63.0859C67.444 63.0208 67.9648 62.9492 68.4206 62.8711C68.4075 62.9622 68.401 63.0664 68.401 63.1836C68.388 63.2878 68.3815 63.4115 68.3815 63.5547C68.3815 63.6979 68.3815 63.8607 68.3815 64.043C68.3815 64.4596 68.3945 64.9609 68.4206 65.5469C68.4466 66.1198 68.4987 66.7383 68.5768 67.4023C67.1706 67.2201 65.9596 67.1094 64.944 67.0703C63.9284 67.0182 63.1406 66.9922 62.5807 66.9922C62.5807 68.3464 62.5872 69.5573 62.6003 70.625C62.6133 71.6797 62.6263 72.6107 62.6393 73.418C62.6654 74.2253 62.6849 74.9154 62.6979 75.4883C62.724 76.0612 62.75 76.5365 62.776 76.9141C64.1042 76.888 65.2891 76.8229 66.3307 76.7188C67.3724 76.6146 68.2513 76.5104 68.9674 76.4062C69.6836 76.2891 70.2305 76.1849 70.6081 76.0938C70.9857 76.0026 71.1745 75.944 71.1745 75.918C71.1615 75.9831 71.1549 76.0547 71.1549 76.1328C71.1419 76.1979 71.1354 76.2826 71.1354 76.3867C71.1354 76.4909 71.1354 76.6146 71.1354 76.7578C71.1354 77.1224 71.1484 77.6107 71.1745 78.2227C71.2005 78.8346 71.2656 79.5768 71.3698 80.4492ZM87.6966 80.0391L82.345 80.8789C81.9414 79.707 81.5182 78.5677 81.0755 77.4609C80.6328 76.3411 80.1641 75.2279 79.6693 74.1211C79.2917 75.1237 78.9336 76.1589 78.595 77.2266C78.2695 78.2812 77.944 79.3945 77.6185 80.5664L71.7396 79.9609C72.7812 78.099 73.7773 76.3281 74.7279 74.6484C75.6914 72.9557 76.6159 71.2565 77.5013 69.5508C76.6029 67.7409 75.6589 65.957 74.6693 64.1992C73.6797 62.4284 72.6641 60.6185 71.6224 58.7695L77.2669 58.5156C77.6315 59.6875 78.0026 60.8138 78.3802 61.8945C78.7708 62.9753 79.1875 64.0234 79.6302 65.0391C80.0729 64.0625 80.4896 63.0534 80.8802 62.0117C81.2839 60.9701 81.6615 59.8893 82.013 58.7695L87.5013 59.3164C86.3164 61.1003 85.2422 62.806 84.2786 64.4336C83.3151 66.0612 82.4427 67.7018 81.6615 69.3555C82.5599 71.1263 83.5104 72.8841 84.513 74.6289C85.5286 76.3737 86.5898 78.1771 87.6966 80.0391ZM88.1836 87.832C88.3398 85.957 88.4701 84.1146 88.5742 82.3047C88.6914 80.4948 88.7891 78.7044 88.8672 76.9336C88.9453 75.1497 89.0039 73.3724 89.043 71.6016C89.082 69.8307 89.1016 68.0404 89.1016 66.2305C89.1016 63.8216 89.0625 61.3346 88.9844 58.7695L93.418 58.7109L93.3008 60.8789C93.8607 59.7852 94.5117 58.9323 95.2539 58.3203C95.9961 57.7083 96.7708 57.4023 97.5781 57.4023C98.5547 57.4023 99.4206 57.6172 100.176 58.0469C100.944 58.4635 101.589 59.1276 102.109 60.0391C102.63 60.9505 103.027 62.1159 103.301 63.5352C103.574 64.9414 103.711 66.6406 103.711 68.6328C103.711 70.9115 103.522 72.832 103.145 74.3945C102.767 75.944 102.266 77.2005 101.641 78.1641C101.016 79.1146 100.306 79.7982 99.5117 80.2148C98.7305 80.6315 97.9297 80.8398 97.1094 80.8398C96.6797 80.8008 96.237 80.6966 95.7812 80.5273C95.3906 80.3841 94.9544 80.1562 94.4727 79.8438C94.0039 79.5182 93.5352 79.0625 93.0664 78.4766C93.0924 80.026 93.1315 81.582 93.1836 83.1445C93.2357 84.707 93.3138 86.3021 93.418 87.9297L88.1836 87.832ZM93.0273 74.5508C93.1576 74.7982 93.3138 75.0651 93.4961 75.3516C93.6784 75.625 93.8737 75.8854 94.082 76.1328C94.3034 76.3672 94.5378 76.5625 94.7852 76.7188C95.0326 76.875 95.2995 76.9531 95.5859 76.9531C95.9766 76.9531 96.3607 76.7969 96.7383 76.4844C97.1289 76.1589 97.474 75.6576 97.7734 74.9805C98.0729 74.2904 98.3138 73.4049 98.4961 72.3242C98.6914 71.2305 98.7891 69.9219 98.7891 68.3984C98.7891 67.1484 98.724 66.0742 98.5937 65.1758C98.4766 64.2643 98.3138 63.5156 98.1055 62.9297C97.8971 62.3307 97.6497 61.8945 97.3633 61.6211C97.0768 61.3346 96.7773 61.1914 96.4648 61.1914C96.2044 61.1914 95.9505 61.2891 95.7031 61.4844C95.4557 61.6667 95.2148 61.9076 94.9805 62.207C94.7591 62.4935 94.5508 62.8255 94.3555 63.2031C94.1602 63.5677 93.9779 63.9323 93.8086 64.2969C93.6523 64.6484 93.5156 64.9805 93.3984 65.293C93.2812 65.6055 93.1966 65.8529 93.1445 66.0352C93.1055 67.4284 93.0729 68.7956 93.0469 70.1367C93.0339 71.4779 93.0273 72.832 93.0273 74.1992V74.5508ZM119.667 75.8008C119.667 76.569 119.491 77.2917 119.139 77.9688C118.788 78.6458 118.312 79.2318 117.714 79.7266C117.115 80.2214 116.411 80.612 115.604 80.8984C114.797 81.1849 113.937 81.3281 113.026 81.3281C112.414 81.3281 111.796 81.2435 111.171 81.0742C110.546 80.9049 109.947 80.625 109.374 80.2344C108.801 79.8438 108.26 79.3294 107.753 78.6914C107.245 78.0534 106.802 77.2721 106.424 76.3477C106.06 75.4232 105.767 74.3424 105.546 73.1055C105.337 71.8555 105.233 70.4232 105.233 68.8086C105.233 67.2852 105.337 65.9375 105.546 64.7656C105.767 63.5938 106.06 62.5716 106.424 61.6992C106.802 60.8268 107.238 60.0977 107.733 59.5117C108.228 58.9128 108.755 58.431 109.315 58.0664C109.888 57.6888 110.474 57.4219 111.073 57.2656C111.685 57.1094 112.284 57.0312 112.87 57.0312C113.742 57.0312 114.569 57.1745 115.35 57.4609C116.132 57.7344 116.815 58.1445 117.401 58.6914C117.987 59.2383 118.449 59.9154 118.788 60.7227C119.139 61.5169 119.315 62.4349 119.315 63.4766C119.315 64.4141 119.12 65.3646 118.729 66.3281C118.352 67.2786 117.785 68.1836 117.03 69.043C116.275 69.8893 115.337 70.6641 114.217 71.3672C113.111 72.0573 111.835 72.6042 110.389 73.0078C110.467 73.8151 110.578 74.5508 110.721 75.2148C110.878 75.8789 111.066 76.4453 111.288 76.9141C111.522 77.3828 111.789 77.7474 112.089 78.0078C112.401 78.2682 112.759 78.3984 113.163 78.3984C113.423 78.3854 113.671 78.3398 113.905 78.2617C114.113 78.1966 114.322 78.0924 114.53 77.9492C114.751 77.806 114.934 77.5977 115.077 77.3242C114.738 77.168 114.478 76.9661 114.296 76.7188C114.113 76.4714 113.977 76.237 113.885 76.0156C113.781 75.7552 113.723 75.4818 113.71 75.1953C113.71 74.5703 113.833 74.0625 114.081 73.6719C114.328 73.2812 114.621 72.9753 114.96 72.7539C115.298 72.5326 115.643 72.3828 115.995 72.3047C116.346 72.2135 116.626 72.168 116.835 72.168C117.056 72.168 117.323 72.2135 117.635 72.3047C117.961 72.3958 118.273 72.5716 118.573 72.832C118.872 73.0924 119.126 73.4635 119.335 73.9453C119.556 74.4141 119.667 75.0326 119.667 75.8008ZM114.842 63.5156C114.842 63.0469 114.797 62.6042 114.706 62.1875C114.628 61.7578 114.504 61.3867 114.335 61.0742C114.178 60.7617 113.977 60.5143 113.729 60.332C113.495 60.1367 113.221 60.0391 112.909 60.0391C112.375 60.0391 111.939 60.2865 111.6 60.7812C111.262 61.263 110.988 61.9076 110.78 62.7148C110.572 63.5221 110.428 64.4531 110.35 65.5078C110.272 66.5625 110.233 67.6628 110.233 68.8086V70.2344C110.897 69.8828 111.509 69.4661 112.069 68.9844C112.642 68.5026 113.13 67.9753 113.534 67.4023C113.951 66.8164 114.27 66.1979 114.491 65.5469C114.725 64.8958 114.842 64.2188 114.842 63.5156ZM126.443 80.8008L121.228 81.1914C121.436 78.8607 121.586 76.6146 121.677 74.4531C121.781 72.2786 121.833 70.1042 121.833 67.9297C121.833 66.3932 121.807 64.8568 121.755 63.3203C121.716 61.7708 121.638 60.1823 121.521 58.5547L125.915 58.3203C125.889 58.6068 125.87 58.8867 125.857 59.1602C125.844 59.4336 125.837 59.7005 125.837 59.9609C126.293 59.2578 126.788 58.7109 127.322 58.3203C127.868 57.9167 128.376 57.6237 128.845 57.4414C129.379 57.2201 129.919 57.0833 130.466 57.0312C131.417 57.0312 132.23 57.181 132.908 57.4805C133.585 57.7669 134.138 58.1445 134.568 58.6133C134.997 59.069 135.31 59.5833 135.505 60.1562C135.701 60.7161 135.798 61.263 135.798 61.7969C135.798 62.3438 135.74 62.8971 135.622 63.457C135.505 64.0169 135.303 64.5247 135.017 64.9805C134.743 65.4232 134.372 65.7878 133.904 66.0742C133.448 66.3477 132.882 66.4844 132.204 66.4844C131.527 66.4844 130.993 66.3607 130.603 66.1133C130.212 65.8659 129.913 65.5729 129.704 65.2344C129.509 64.8828 129.379 64.5247 129.314 64.1602C129.262 63.7826 129.236 63.4635 129.236 63.2031C129.236 63.0208 129.268 62.819 129.333 62.5977C129.398 62.3633 129.496 62.1289 129.626 61.8945C129.757 61.6602 129.919 61.4323 130.115 61.2109C130.31 60.9766 130.538 60.7617 130.798 60.5664C130.72 60.5404 130.635 60.5208 130.544 60.5078C130.466 60.4948 130.388 60.4883 130.31 60.4883C129.659 60.4883 129.079 60.6966 128.572 61.1133C128.064 61.5169 127.621 62.0833 127.243 62.8125C126.879 63.5417 126.573 64.401 126.326 65.3906C126.091 66.3802 125.915 67.4609 125.798 68.6328C125.863 70.651 125.954 72.6497 126.072 74.6289C126.189 76.6081 126.312 78.6654 126.443 80.8008ZM142.477 52.5977C142.477 53.0143 142.398 53.4115 142.242 53.7891C142.086 54.1536 141.871 54.4727 141.598 54.7461C141.324 55.0195 140.999 55.2409 140.621 55.4102C140.257 55.5664 139.866 55.6445 139.449 55.6445C139.033 55.6445 138.635 55.5664 138.258 55.4102C137.893 55.2409 137.574 55.0195 137.301 54.7461C137.027 54.4727 136.806 54.1536 136.637 53.7891C136.48 53.4115 136.402 53.0143 136.402 52.5977C136.402 52.181 136.48 51.7904 136.637 51.4258C136.806 51.0482 137.027 50.7227 137.301 50.4492C137.574 50.1758 137.893 49.9609 138.258 49.8047C138.635 49.6354 139.033 49.5508 139.449 49.5508C139.866 49.5508 140.257 49.6354 140.621 49.8047C140.999 49.9609 141.324 50.1758 141.598 50.4492C141.871 50.7227 142.086 51.0482 142.242 51.4258C142.398 51.7904 142.477 52.181 142.477 52.5977ZM142.477 58.5156C142.372 59.5443 142.281 60.6576 142.203 61.8555C142.138 63.0404 142.079 64.2578 142.027 65.5078C141.988 66.7578 141.956 68.0143 141.93 69.2773C141.904 70.5404 141.884 71.7448 141.871 72.8906C141.858 74.0365 141.845 75.1107 141.832 76.1133C141.832 77.1029 141.832 77.9557 141.832 78.6719V80.8789L137.398 81.0352C137.424 80.1367 137.438 79.2643 137.438 78.418C137.438 77.5716 137.438 76.7253 137.438 75.8789C137.438 74.4076 137.424 72.9753 137.398 71.582C137.372 70.1758 137.327 68.7695 137.262 67.3633C137.21 65.957 137.138 64.5312 137.047 63.0859C136.956 61.6406 136.845 60.1432 136.715 58.5938L142.477 58.5156ZM157.358 69.8047C157.358 70.5859 157.352 71.2695 157.339 71.8555C157.326 72.4284 157.306 72.9557 157.28 73.4375C157.267 73.9062 157.241 74.3555 157.202 74.7852C157.176 75.2018 157.143 75.651 157.104 76.1328C157.065 76.6016 157.02 77.1354 156.967 77.7344C156.915 78.3203 156.857 79.0104 156.792 79.8047L152.397 79.8438C152.579 77.7474 152.71 75.7357 152.788 73.8086C152.879 71.8685 152.924 69.9479 152.924 68.0469C152.924 66.237 152.755 64.9154 152.417 64.082C152.091 63.2487 151.59 62.832 150.913 62.832C150.652 62.9102 150.398 63.0859 150.151 63.3594C149.93 63.5938 149.702 63.9518 149.467 64.4336C149.246 64.9154 149.051 65.5859 148.882 66.4453C148.855 67.0833 148.842 67.7148 148.842 68.3398C148.842 68.9518 148.842 69.5573 148.842 70.1562C148.842 70.8594 148.842 71.5755 148.842 72.3047C148.855 73.0339 148.862 73.8151 148.862 74.6484C148.875 75.4818 148.888 76.3802 148.901 77.3438C148.914 78.2943 148.934 79.3424 148.96 80.4883L144.507 80.3906C144.598 78.8932 144.676 77.5586 144.741 76.3867C144.806 75.2148 144.858 74.1341 144.897 73.1445C144.949 72.1549 144.982 71.2174 144.995 70.332C145.021 69.4466 145.034 68.5352 145.034 67.5977C145.034 66.9727 145.027 66.3346 145.014 65.6836C145.014 65.0195 145.001 64.3099 144.975 63.5547C144.962 62.7995 144.943 61.9922 144.917 61.1328C144.891 60.2604 144.865 59.3099 144.839 58.2812L149.272 58.3594L149.155 60.1953C149.533 59.4531 149.93 58.8802 150.346 58.4766C150.763 58.0729 151.154 57.7799 151.518 57.5977C151.883 57.4154 152.189 57.3112 152.436 57.2852C152.697 57.2591 152.859 57.2461 152.924 57.2461C153.315 57.2461 153.686 57.2982 154.038 57.4023C154.402 57.5065 154.741 57.7018 155.053 57.9883C155.379 58.2747 155.672 58.6719 155.932 59.1797C156.206 59.6875 156.44 60.3451 156.635 61.1523C156.987 60.1628 157.423 59.401 157.944 58.8672C158.465 58.3333 158.973 57.9492 159.467 57.7148C159.975 57.4674 160.418 57.3307 160.796 57.3047C161.186 57.2656 161.414 57.2461 161.479 57.2461C162.312 57.2461 163.016 57.5 163.589 58.0078C164.161 58.5156 164.617 59.2904 164.956 60.332C165.294 61.3737 165.535 62.6823 165.678 64.2578C165.835 65.8333 165.913 67.6823 165.913 69.8047C165.913 70.5078 165.88 71.3216 165.815 72.2461C165.75 73.1706 165.665 74.1276 165.561 75.1172C165.457 76.0938 165.346 77.0638 165.229 78.0273C165.112 78.9909 165.008 79.8503 164.917 80.6055L160.522 80.4492C160.743 79.056 160.913 77.7344 161.03 76.4844C161.16 75.2214 161.258 74.1016 161.323 73.125C161.388 71.9922 161.427 70.9375 161.44 69.9609C161.44 68.724 161.408 67.6562 161.342 66.7578C161.29 65.8594 161.186 65.1237 161.03 64.5508C160.874 63.9648 160.659 63.5352 160.385 63.2617C160.112 62.9753 159.767 62.832 159.35 62.832C159.077 62.9102 158.816 63.0599 158.569 63.2812C158.348 63.4635 158.113 63.7435 157.866 64.1211C157.632 64.4857 157.423 64.9805 157.241 65.6055C157.319 66.8034 157.358 68.2031 157.358 69.8047ZM182.161 75.8008C182.161 76.569 181.986 77.2917 181.634 77.9688C181.283 78.6458 180.807 79.2318 180.208 79.7266C179.609 80.2214 178.906 80.612 178.099 80.8984C177.292 81.1849 176.432 81.3281 175.521 81.3281C174.909 81.3281 174.29 81.2435 173.665 81.0742C173.04 80.9049 172.441 80.625 171.868 80.2344C171.296 79.8438 170.755 79.3294 170.247 78.6914C169.74 78.0534 169.297 77.2721 168.919 76.3477C168.555 75.4232 168.262 74.3424 168.04 73.1055C167.832 71.8555 167.728 70.4232 167.728 68.8086C167.728 67.2852 167.832 65.9375 168.04 64.7656C168.262 63.5938 168.555 62.5716 168.919 61.6992C169.297 60.8268 169.733 60.0977 170.228 59.5117C170.723 58.9128 171.25 58.431 171.81 58.0664C172.383 57.6888 172.969 57.4219 173.568 57.2656C174.18 57.1094 174.779 57.0312 175.365 57.0312C176.237 57.0312 177.064 57.1745 177.845 57.4609C178.626 57.7344 179.31 58.1445 179.896 58.6914C180.482 59.2383 180.944 59.9154 181.283 60.7227C181.634 61.5169 181.81 62.4349 181.81 63.4766C181.81 64.4141 181.615 65.3646 181.224 66.3281C180.846 67.2786 180.28 68.1836 179.525 69.043C178.77 69.8893 177.832 70.6641 176.712 71.3672C175.605 72.0573 174.329 72.6042 172.884 73.0078C172.962 73.8151 173.073 74.5508 173.216 75.2148C173.372 75.8789 173.561 76.4453 173.783 76.9141C174.017 77.3828 174.284 77.7474 174.583 78.0078C174.896 78.2682 175.254 78.3984 175.658 78.3984C175.918 78.3854 176.165 78.3398 176.4 78.2617C176.608 78.1966 176.816 78.0924 177.025 77.9492C177.246 77.806 177.428 77.5977 177.572 77.3242C177.233 77.168 176.973 76.9661 176.79 76.7188C176.608 76.4714 176.471 76.237 176.38 76.0156C176.276 75.7552 176.217 75.4818 176.204 75.1953C176.204 74.5703 176.328 74.0625 176.576 73.6719C176.823 73.2812 177.116 72.9753 177.454 72.7539C177.793 72.5326 178.138 72.3828 178.49 72.3047C178.841 72.2135 179.121 72.168 179.329 72.168C179.551 72.168 179.818 72.2135 180.13 72.3047C180.456 72.3958 180.768 72.5716 181.068 72.832C181.367 73.0924 181.621 73.4635 181.829 73.9453C182.051 74.4141 182.161 75.0326 182.161 75.8008ZM177.337 63.5156C177.337 63.0469 177.292 62.6042 177.201 62.1875C177.122 61.7578 176.999 61.3867 176.829 61.0742C176.673 60.7617 176.471 60.5143 176.224 60.332C175.99 60.1367 175.716 60.0391 175.404 60.0391C174.87 60.0391 174.434 60.2865 174.095 60.7812C173.757 61.263 173.483 61.9076 173.275 62.7148C173.066 63.5221 172.923 64.4531 172.845 65.5078C172.767 66.5625 172.728 67.6628 172.728 68.8086V70.2344C173.392 69.8828 174.004 69.4661 174.564 68.9844C175.137 68.5026 175.625 67.9753 176.029 67.4023C176.445 66.8164 176.764 66.1979 176.986 65.5469C177.22 64.8958 177.337 64.2188 177.337 63.5156ZM189.094 58.3594L188.977 59.9609C189.406 59.2448 189.862 58.6979 190.344 58.3203C190.839 57.9427 191.294 57.6758 191.711 57.5195C192.128 57.3633 192.473 57.2786 192.746 57.2656C193.033 57.2526 193.189 57.2461 193.215 57.2461C194.178 57.2461 195.018 57.4674 195.734 57.9102C196.451 58.3529 197.043 58.9974 197.512 59.8438C197.98 60.6771 198.326 61.6992 198.547 62.9102C198.781 64.1081 198.898 65.4688 198.898 66.9922C198.898 68.112 198.879 69.2578 198.84 70.4297C198.814 71.5885 198.749 72.7474 198.645 73.9062C198.553 75.0521 198.423 76.1719 198.254 77.2656C198.098 78.3594 197.883 79.401 197.609 80.3906L193.059 79.8438C193.358 78.2943 193.592 76.849 193.762 75.5078C193.931 74.1667 194.055 72.9948 194.133 71.9922C194.224 70.8203 194.276 69.7461 194.289 68.7695C194.289 67.5326 194.25 66.4583 194.172 65.5469C194.094 64.6224 193.951 63.8607 193.742 63.2617C193.547 62.6497 193.273 62.194 192.922 61.8945C192.57 61.5951 192.121 61.4453 191.574 61.4453C191.21 61.5234 190.845 61.7839 190.48 62.2266C190.168 62.6042 189.836 63.2096 189.484 64.043C189.133 64.8633 188.827 66.0221 188.566 67.5195C188.527 68.5352 188.501 69.5443 188.488 70.5469C188.488 71.5365 188.488 72.5911 188.488 73.7109C188.488 74.6615 188.488 75.6836 188.488 76.7773C188.488 77.8711 188.501 79.1081 188.527 80.4883L184.094 80.3906C184.133 79.0625 184.159 77.6562 184.172 76.1719C184.198 74.6745 184.211 73.0143 184.211 71.1914C184.211 69.3815 184.198 67.4219 184.172 65.3125C184.146 63.2031 184.094 60.8594 184.016 58.2812L189.094 58.3594ZM208.018 50.3125C207.914 51.6536 207.829 52.9753 207.764 54.2773C207.699 55.5664 207.634 56.862 207.569 58.1641C208.142 58.138 208.708 58.1185 209.268 58.1055C209.828 58.0794 210.401 58.0469 210.987 58.0078L211.065 63.0078C210.44 62.9036 209.822 62.819 209.21 62.7539C208.598 62.6888 207.999 62.6367 207.413 62.5977C207.374 63.7044 207.348 64.7982 207.335 65.8789C207.335 66.9596 207.335 68.0534 207.335 69.1602C207.335 71.1393 207.354 73.1055 207.393 75.0586C207.445 77.0117 207.523 78.9779 207.628 80.957L202.53 80.8789C202.699 77.819 202.836 74.7656 202.94 71.7188C203.057 68.6589 203.135 65.5794 203.174 62.4805C202.628 62.5065 202.081 62.5391 201.534 62.5781C200.987 62.6042 200.427 62.6367 199.854 62.6758L200.01 58.0469C200.544 58.0859 201.072 58.1185 201.592 58.1445C202.126 58.1576 202.654 58.1771 203.174 58.2031C203.174 56.901 203.161 55.6055 203.135 54.3164C203.109 53.0143 203.083 51.7057 203.057 50.3906L208.018 50.3125ZM226.201 75.8008C226.201 76.569 226.025 77.2917 225.673 77.9688C225.322 78.6458 224.846 79.2318 224.247 79.7266C223.648 80.2214 222.945 80.612 222.138 80.8984C221.331 81.1849 220.471 81.3281 219.56 81.3281C218.948 81.3281 218.329 81.2435 217.704 81.0742C217.079 80.9049 216.48 80.625 215.908 80.2344C215.335 79.8438 214.794 79.3294 214.286 78.6914C213.779 78.0534 213.336 77.2721 212.958 76.3477C212.594 75.4232 212.301 74.3424 212.079 73.1055C211.871 71.8555 211.767 70.4232 211.767 68.8086C211.767 67.2852 211.871 65.9375 212.079 64.7656C212.301 63.5938 212.594 62.5716 212.958 61.6992C213.336 60.8268 213.772 60.0977 214.267 59.5117C214.762 58.9128 215.289 58.431 215.849 58.0664C216.422 57.6888 217.008 57.4219 217.607 57.2656C218.219 57.1094 218.818 57.0312 219.404 57.0312C220.276 57.0312 221.103 57.1745 221.884 57.4609C222.665 57.7344 223.349 58.1445 223.935 58.6914C224.521 59.2383 224.983 59.9154 225.322 60.7227C225.673 61.5169 225.849 62.4349 225.849 63.4766C225.849 64.4141 225.654 65.3646 225.263 66.3281C224.885 67.2786 224.319 68.1836 223.564 69.043C222.809 69.8893 221.871 70.6641 220.751 71.3672C219.645 72.0573 218.368 72.6042 216.923 73.0078C217.001 73.8151 217.112 74.5508 217.255 75.2148C217.411 75.8789 217.6 76.4453 217.822 76.9141C218.056 77.3828 218.323 77.7474 218.622 78.0078C218.935 78.2682 219.293 78.3984 219.697 78.3984C219.957 78.3854 220.204 78.3398 220.439 78.2617C220.647 78.1966 220.855 78.0924 221.064 77.9492C221.285 77.806 221.467 77.5977 221.611 77.3242C221.272 77.168 221.012 76.9661 220.829 76.7188C220.647 76.4714 220.51 76.237 220.419 76.0156C220.315 75.7552 220.257 75.4818 220.243 75.1953C220.243 74.5703 220.367 74.0625 220.615 73.6719C220.862 73.2812 221.155 72.9753 221.493 72.7539C221.832 72.5326 222.177 72.3828 222.529 72.3047C222.88 72.2135 223.16 72.168 223.368 72.168C223.59 72.168 223.857 72.2135 224.169 72.3047C224.495 72.3958 224.807 72.5716 225.107 72.832C225.406 73.0924 225.66 73.4635 225.868 73.9453C226.09 74.4141 226.201 75.0326 226.201 75.8008ZM221.376 63.5156C221.376 63.0469 221.331 62.6042 221.24 62.1875C221.161 61.7578 221.038 61.3867 220.868 61.0742C220.712 60.7617 220.51 60.5143 220.263 60.332C220.029 60.1367 219.755 60.0391 219.443 60.0391C218.909 60.0391 218.473 60.2865 218.134 60.7812C217.796 61.263 217.522 61.9076 217.314 62.7148C217.105 63.5221 216.962 64.4531 216.884 65.5078C216.806 66.5625 216.767 67.6628 216.767 68.8086V70.2344C217.431 69.8828 218.043 69.4661 218.603 68.9844C219.176 68.5026 219.664 67.9753 220.068 67.4023C220.484 66.8164 220.803 66.1979 221.025 65.5469C221.259 64.8958 221.376 64.2188 221.376 63.5156Z" fill="white"/>
</g>
<g filter="url(#filter3_d)">
<path d="M263.531 91.1875C263.375 93.7188 263.234 96.3594 263.109 99.1094C263.016 101.828 262.922 104.562 262.828 107.312C262.766 110.062 262.703 112.766 262.641 115.422C262.609 118.078 262.578 120.578 262.547 122.922C262.516 125.266 262.5 127.406 262.5 129.344C262.5 131.281 262.5 132.922 262.5 134.266C262.5 136.016 262.5 137.953 262.5 140.078C262.5 142.203 262.516 144.391 262.547 146.641C262.578 148.891 262.609 151.156 262.641 153.438C262.703 155.688 262.781 157.812 262.875 159.812C261.531 159.75 260.297 159.719 259.172 159.719C258.078 159.719 257.078 159.719 256.172 159.719C254.547 159.719 253.203 159.734 252.141 159.766C251.078 159.797 250.234 159.844 249.609 159.906C248.859 159.969 248.281 160.031 247.875 160.094C247.781 159.438 247.578 158.422 247.266 157.047C246.984 155.641 246.609 153.984 246.141 152.078C245.703 150.172 245.188 148.062 244.594 145.75C244 143.438 243.359 141.031 242.672 138.531C242.016 136.031 241.328 133.5 240.609 130.938C239.891 128.344 239.172 125.828 238.453 123.391C237.766 120.922 237.078 118.594 236.391 116.406C235.734 114.188 235.125 112.203 234.562 110.453C234.312 114.453 234.125 118.156 234 121.562C233.875 124.938 233.781 127.891 233.719 130.422C233.625 133.359 233.578 136.047 233.578 138.484C233.578 140.578 233.625 142.797 233.719 145.141C233.781 147.141 233.891 149.422 234.047 151.984C234.234 154.547 234.5 157.156 234.844 159.812C232.438 159.719 230.453 159.672 228.891 159.672C227.359 159.641 226.141 159.625 225.234 159.625H222.938C223.094 154.031 223.219 149.281 223.312 145.375C223.406 141.469 223.469 138.203 223.5 135.578C223.562 132.922 223.594 130.797 223.594 129.203C223.625 127.609 223.641 126.328 223.641 125.359C223.641 124.359 223.625 123.562 223.594 122.969C223.594 122.375 223.594 121.766 223.594 121.141C223.594 119.578 223.578 117.719 223.547 115.562C223.547 113.406 223.516 111.094 223.453 108.625C223.391 106.125 223.297 103.531 223.172 100.844C223.047 98.1562 222.875 95.5 222.656 92.875C225.844 92.875 228.469 92.8438 230.531 92.7812C232.594 92.7188 234.234 92.6562 235.453 92.5938C236.891 92.5 238 92.4062 238.781 92.3125C238.938 93.3125 239.25 94.875 239.719 97C240.219 99.125 240.797 101.594 241.453 104.406C242.141 107.188 242.906 110.203 243.75 113.453C244.594 116.703 245.453 119.984 246.328 123.297C247.234 126.578 248.141 129.781 249.047 132.906C249.953 136 250.812 138.797 251.625 141.297C251.781 138.641 251.891 135.938 251.953 133.188C252.047 130.406 252.109 127.812 252.141 125.406C252.203 123 252.234 120.906 252.234 119.125C252.234 117.312 252.234 116.062 252.234 115.375C252.203 112.531 252.141 109.688 252.047 106.844C252.016 105.625 251.969 104.359 251.906 103.047C251.844 101.734 251.766 100.422 251.672 99.1094C251.609 97.7656 251.516 96.4531 251.391 95.1719C251.297 93.8906 251.188 92.6875 251.062 91.5625L263.531 91.1875ZM286.729 162.672C283.635 162.672 280.964 162 278.714 160.656C276.495 159.312 274.651 157.438 273.182 155.031C271.745 152.625 270.682 149.766 269.995 146.453C269.307 143.141 268.964 139.531 268.964 135.625C268.964 131.094 269.37 126.938 270.182 123.156C270.995 119.375 272.182 116.125 273.745 113.406C275.339 110.688 277.292 108.578 279.604 107.078C281.948 105.547 284.635 104.781 287.667 104.781C290.729 104.781 293.37 105.422 295.589 106.703C297.807 107.984 299.635 109.781 301.073 112.094C302.542 114.406 303.62 117.172 304.307 120.391C304.995 123.609 305.339 127.156 305.339 131.031C305.339 133.031 305.214 135.203 304.964 137.547C304.745 139.891 304.354 142.234 303.792 144.578C303.26 146.922 302.542 149.188 301.635 151.375C300.729 153.531 299.589 155.453 298.214 157.141C296.839 158.828 295.198 160.172 293.292 161.172C291.417 162.172 289.229 162.672 286.729 162.672ZM294.042 127.562C294.042 125.188 293.932 123.062 293.714 121.188C293.495 119.281 293.135 117.672 292.635 116.359C292.167 115.047 291.557 114.047 290.807 113.359C290.089 112.641 289.214 112.281 288.182 112.281C287.057 112.281 286.01 112.875 285.042 114.062C284.073 115.25 283.214 116.969 282.464 119.219C281.745 121.469 281.167 124.219 280.729 127.469C280.323 130.688 280.12 134.328 280.12 138.391C280.12 141.016 280.245 143.375 280.495 145.469C280.745 147.531 281.12 149.297 281.62 150.766C282.12 152.203 282.729 153.312 283.448 154.094C284.198 154.844 285.073 155.219 286.073 155.219C287.073 155.219 287.964 154.812 288.745 154C289.526 153.156 290.198 152.031 290.76 150.625C291.354 149.219 291.854 147.594 292.26 145.75C292.698 143.875 293.042 141.922 293.292 139.891C293.542 137.828 293.729 135.734 293.854 133.609C293.979 131.484 294.042 129.469 294.042 127.562ZM342.646 117.766C342.646 119.203 342.38 120.422 341.849 121.422C341.318 122.422 340.677 123.234 339.927 123.859C339.177 124.484 338.396 124.938 337.583 125.219C336.771 125.5 336.083 125.641 335.521 125.641C334.958 125.641 334.286 125.547 333.505 125.359C332.724 125.141 331.974 124.766 331.255 124.234C330.568 123.703 329.974 123 329.474 122.125C328.974 121.219 328.724 120.078 328.724 118.703C328.755 117.953 328.896 117.219 329.146 116.5C329.365 115.875 329.693 115.234 330.13 114.578C330.599 113.891 331.255 113.281 332.099 112.75C331.536 111.938 330.974 111.312 330.411 110.875C329.849 110.438 329.349 110.109 328.911 109.891C328.38 109.641 327.896 109.484 327.458 109.422C326.49 109.422 325.615 109.625 324.833 110.031C324.052 110.406 323.38 110.922 322.818 111.578C322.286 112.203 321.865 112.938 321.552 113.781C321.271 114.625 321.13 115.5 321.13 116.406C321.13 117.562 321.208 118.609 321.365 119.547C321.521 120.484 321.88 121.438 322.443 122.406C323.005 123.375 323.849 124.422 324.974 125.547C326.099 126.672 327.63 127.984 329.568 129.484C331.505 130.984 333.193 132.453 334.63 133.891C336.068 135.297 337.255 136.688 338.193 138.062C339.13 139.438 339.833 140.828 340.302 142.234C340.771 143.609 341.005 145.047 341.005 146.547C341.005 147.547 340.896 148.641 340.677 149.828C340.49 150.984 340.146 152.172 339.646 153.391C339.177 154.578 338.536 155.734 337.724 156.859C336.943 157.953 335.958 158.938 334.771 159.812C333.615 160.688 332.24 161.375 330.646 161.875C329.083 162.406 327.286 162.672 325.255 162.672C322.193 162.672 319.583 162.219 317.427 161.312C315.271 160.406 313.49 159.312 312.083 158.031C310.708 156.719 309.693 155.344 309.036 153.906C308.411 152.469 308.099 151.203 308.099 150.109C308.099 148.953 308.24 147.875 308.521 146.875C308.802 145.875 309.24 145 309.833 144.25C310.458 143.5 311.24 142.922 312.177 142.516C313.146 142.078 314.302 141.859 315.646 141.859C316.771 141.859 317.786 142.031 318.693 142.375C319.63 142.719 320.427 143.234 321.083 143.922C321.771 144.578 322.302 145.391 322.677 146.359C323.052 147.328 323.24 148.422 323.24 149.641C323.208 150.172 323.099 150.719 322.911 151.281C322.755 151.75 322.49 152.266 322.115 152.828C321.74 153.391 321.224 153.922 320.568 154.422C321.005 154.766 321.427 155.031 321.833 155.219C322.271 155.375 322.661 155.484 323.005 155.547C323.38 155.641 323.755 155.688 324.13 155.688C324.536 155.688 325.005 155.578 325.536 155.359C326.099 155.109 326.63 154.734 327.13 154.234C327.63 153.734 328.052 153.125 328.396 152.406C328.74 151.688 328.911 150.828 328.911 149.828C328.911 148.828 328.818 147.922 328.63 147.109C328.474 146.266 328.115 145.406 327.552 144.531C327.021 143.625 326.24 142.641 325.208 141.578C324.177 140.516 322.818 139.234 321.13 137.734C319.443 136.234 317.943 134.781 316.63 133.375C315.318 131.938 314.208 130.453 313.302 128.922C312.427 127.391 311.755 125.781 311.286 124.094C310.818 122.406 310.583 120.547 310.583 118.516C310.583 116.516 310.974 114.578 311.755 112.703C312.568 110.828 313.708 109.172 315.177 107.734C316.646 106.266 318.427 105.109 320.521 104.266C322.615 103.391 324.958 102.953 327.552 102.953C330.177 102.953 332.443 103.359 334.349 104.172C336.255 104.984 337.818 106.078 339.036 107.453C340.255 108.797 341.161 110.359 341.755 112.141C342.349 113.922 342.646 115.797 342.646 117.766ZM379.438 117.766C379.438 119.203 379.172 120.422 378.641 121.422C378.109 122.422 377.469 123.234 376.719 123.859C375.969 124.484 375.188 124.938 374.375 125.219C373.562 125.5 372.875 125.641 372.312 125.641C371.75 125.641 371.078 125.547 370.297 125.359C369.516 125.141 368.766 124.766 368.047 124.234C367.359 123.703 366.766 123 366.266 122.125C365.766 121.219 365.516 120.078 365.516 118.703C365.547 117.953 365.688 117.219 365.938 116.5C366.156 115.875 366.484 115.234 366.922 114.578C367.391 113.891 368.047 113.281 368.891 112.75C368.328 111.938 367.766 111.312 367.203 110.875C366.641 110.438 366.141 110.109 365.703 109.891C365.172 109.641 364.688 109.484 364.25 109.422C363.281 109.422 362.406 109.625 361.625 110.031C360.844 110.406 360.172 110.922 359.609 111.578C359.078 112.203 358.656 112.938 358.344 113.781C358.062 114.625 357.922 115.5 357.922 116.406C357.922 117.562 358 118.609 358.156 119.547C358.312 120.484 358.672 121.438 359.234 122.406C359.797 123.375 360.641 124.422 361.766 125.547C362.891 126.672 364.422 127.984 366.359 129.484C368.297 130.984 369.984 132.453 371.422 133.891C372.859 135.297 374.047 136.688 374.984 138.062C375.922 139.438 376.625 140.828 377.094 142.234C377.562 143.609 377.797 145.047 377.797 146.547C377.797 147.547 377.688 148.641 377.469 149.828C377.281 150.984 376.938 152.172 376.438 153.391C375.969 154.578 375.328 155.734 374.516 156.859C373.734 157.953 372.75 158.938 371.562 159.812C370.406 160.688 369.031 161.375 367.438 161.875C365.875 162.406 364.078 162.672 362.047 162.672C358.984 162.672 356.375 162.219 354.219 161.312C352.062 160.406 350.281 159.312 348.875 158.031C347.5 156.719 346.484 155.344 345.828 153.906C345.203 152.469 344.891 151.203 344.891 150.109C344.891 148.953 345.031 147.875 345.312 146.875C345.594 145.875 346.031 145 346.625 144.25C347.25 143.5 348.031 142.922 348.969 142.516C349.938 142.078 351.094 141.859 352.438 141.859C353.562 141.859 354.578 142.031 355.484 142.375C356.422 142.719 357.219 143.234 357.875 143.922C358.562 144.578 359.094 145.391 359.469 146.359C359.844 147.328 360.031 148.422 360.031 149.641C360 150.172 359.891 150.719 359.703 151.281C359.547 151.75 359.281 152.266 358.906 152.828C358.531 153.391 358.016 153.922 357.359 154.422C357.797 154.766 358.219 155.031 358.625 155.219C359.062 155.375 359.453 155.484 359.797 155.547C360.172 155.641 360.547 155.688 360.922 155.688C361.328 155.688 361.797 155.578 362.328 155.359C362.891 155.109 363.422 154.734 363.922 154.234C364.422 153.734 364.844 153.125 365.188 152.406C365.531 151.688 365.703 150.828 365.703 149.828C365.703 148.828 365.609 147.922 365.422 147.109C365.266 146.266 364.906 145.406 364.344 144.531C363.812 143.625 363.031 142.641 362 141.578C360.969 140.516 359.609 139.234 357.922 137.734C356.234 136.234 354.734 134.781 353.422 133.375C352.109 131.938 351 130.453 350.094 128.922C349.219 127.391 348.547 125.781 348.078 124.094C347.609 122.406 347.375 120.547 347.375 118.516C347.375 116.516 347.766 114.578 348.547 112.703C349.359 110.828 350.5 109.172 351.969 107.734C353.438 106.266 355.219 105.109 357.312 104.266C359.406 103.391 361.75 102.953 364.344 102.953C366.969 102.953 369.234 103.359 371.141 104.172C373.047 104.984 374.609 106.078 375.828 107.453C377.047 108.797 377.953 110.359 378.547 112.141C379.141 113.922 379.438 115.797 379.438 117.766ZM406.057 161.922C405.87 160.953 405.698 159.969 405.542 158.969C405.385 157.969 405.26 156.938 405.167 155.875C403.729 158 402.01 159.625 400.01 160.75C398.01 161.906 395.823 162.484 393.448 162.484C392.229 162.484 390.979 162.281 389.698 161.875C388.417 161.5 387.245 160.828 386.182 159.859C385.151 158.891 384.292 157.578 383.604 155.922C382.948 154.234 382.62 152.109 382.62 149.547C382.62 147.422 382.932 145.578 383.557 144.016C384.182 142.422 384.995 141.031 385.995 139.844C386.995 138.656 388.12 137.625 389.37 136.75C390.62 135.875 391.854 135.094 393.073 134.406C394.323 133.719 395.51 133.078 396.635 132.484C397.76 131.891 398.682 131.297 399.401 130.703C400.776 129.609 401.964 128.453 402.964 127.234C403.995 125.984 404.823 124.688 405.448 123.344C405.323 121.188 405.089 119.422 404.745 118.047C404.432 116.641 404.01 115.531 403.479 114.719C402.948 113.875 402.292 113.297 401.51 112.984C400.76 112.641 399.901 112.469 398.932 112.469C397.495 112.469 396.276 112.781 395.276 113.406C394.307 114.031 393.51 114.781 392.885 115.656C393.667 116.156 394.26 116.688 394.667 117.25C395.104 117.812 395.432 118.359 395.651 118.891C395.901 119.484 396.042 120.094 396.073 120.719C396.073 122.844 395.464 124.469 394.245 125.594C393.057 126.719 391.526 127.281 389.651 127.281C388.682 127.281 387.792 127.062 386.979 126.625C386.167 126.156 385.448 125.516 384.823 124.703C384.229 123.891 383.76 122.922 383.417 121.797C383.073 120.672 382.901 119.453 382.901 118.141C382.901 116.828 383.198 115.438 383.792 113.969C384.385 112.5 385.339 111.141 386.651 109.891C387.964 108.609 389.651 107.562 391.714 106.75C393.776 105.906 396.276 105.484 399.214 105.484C402.151 105.484 404.667 106.062 406.76 107.219C408.854 108.344 410.573 109.859 411.917 111.766C413.26 113.641 414.229 115.812 414.823 118.281C415.448 120.75 415.76 123.297 415.76 125.922C415.76 127.891 415.745 130.031 415.714 132.344C415.682 134.656 415.667 137.031 415.667 139.469C415.667 141.5 415.682 143.531 415.714 145.562C415.745 147.594 415.807 149.562 415.901 151.469C415.995 153.344 416.12 155.125 416.276 156.812C416.432 158.469 416.635 159.953 416.885 161.266L406.057 161.922ZM405.354 134.453C404.26 135.766 403.089 136.891 401.839 137.828C400.901 138.484 399.885 139.219 398.792 140.031C397.729 140.844 396.729 141.703 395.792 142.609C394.885 143.516 394.12 144.469 393.495 145.469C392.901 146.438 392.604 147.438 392.604 148.469C392.604 149.875 392.948 151.078 393.635 152.078C394.323 153.078 395.292 153.578 396.542 153.578C397.698 153.578 398.729 153.266 399.635 152.641C400.542 152.016 401.339 151.25 402.026 150.344C402.745 149.406 403.339 148.406 403.807 147.344C404.307 146.281 404.698 145.312 404.979 144.438L405.354 134.453Z" fill="white"/>
</g>
<defs>
<filter id="filter0_d" x="71.0918" y="122.472" width="459.304" height="257.324" filterUnits="userSpaceOnUse" color-interpolation-filters="sRGB">
<feFlood flood-opacity="0" result="BackgroundImageFix"/>
<feColorMatrix in="SourceAlpha" type="matrix" values="0 0 0 0 0 0 0 0 0 0 0 0 0 0 0 0 0 0 127 0"/>
<feOffset dx="1" dy="1"/>
<feGaussianBlur stdDeviation="25"/>
<feColorMatrix type="matrix" values="0 0 0 0 0 0 0 0 0 0 0 0 0 0 0 0 0 0 1 0"/>
<feBlend mode="normal" in2="BackgroundImageFix" result="effect1_dropShadow"/>
<feBlend mode="normal" in="SourceGraphic" in2="effect1_dropShadow" result="shape"/>
</filter>
<filter id="filter1_d" x="0.803711" y="62.4802" width="185.449" height="280.548" filterUnits="userSpaceOnUse" color-interpolation-filters="sRGB">
<feFlood flood-opacity="0" result="BackgroundImageFix"/>
<feColorMatrix in="SourceAlpha" type="matrix" values="0 0 0 0 0 0 0 0 0 0 0 0 0 0 0 0 0 0 127 0"/>
<feOffset dx="1" dy="1"/>
<feGaussianBlur stdDeviation="25"/>
<feColorMatrix type="matrix" values="0 0 0 0 0 0 0 0 0 0 0 0 0 0 0 0 0 0 1 0"/>
<feBlend mode="normal" in2="BackgroundImageFix" result="effect1_dropShadow"/>
<feBlend mode="normal" in="SourceGraphic" in2="effect1_dropShadow" result="shape"/>
</filter>
<filter id="filter2_d" x="8.46356" y="0.550781" width="268.737" height="138.379" filterUnits="userSpaceOnUse" color-interpolation-filters="sRGB">
<feFlood flood-opacity="0" result="BackgroundImageFix"/>
<feColorMatrix in="SourceAlpha" type="matrix" values="0 0 0 0 0 0 0 0 0 0 0 0 0 0 0 0 0 0 127 0"/>
<feOffset dx="1" dy="1"/>
<feGaussianBlur stdDeviation="25"/>
<feColorMatrix type="matrix" values="0 0 0 0 0 0 0 0 0 0 0 0 0 0 0 0 0 0 1 0"/>
<feBlend mode="normal" in2="BackgroundImageFix" result="effect1_dropShadow"/>
<feBlend mode="normal" in="SourceGraphic" in2="effect1_dropShadow" result="shape"/>
</filter>
<filter id="filter3_d" x="173.656" y="42.1875" width="294.229" height="171.484" filterUnits="userSpaceOnUse" color-interpolation-filters="sRGB">
<feFlood flood-opacity="0" result="BackgroundImageFix"/>
<feColorMatrix in="SourceAlpha" type="matrix" values="0 0 0 0 0 0 0 0 0 0 0 0 0 0 0 0 0 0 127 0"/>
<feOffset dx="1" dy="1"/>
<feGaussianBlur stdDeviation="25"/>
<feColorMatrix type="matrix" values="0 0 0 0 0 0 0 0 0 0 0 0 0 0 0 0 0 0 1 0"/>
<feBlend mode="normal" in2="BackgroundImageFix" result="effect1_dropShadow"/>
<feBlend mode="normal" in="SourceGraphic" in2="effect1_dropShadow" result="shape"/>
</filter>
</defs>
</svg>
